<svg id="Capa_1" data-name="Capa 1" xmlns="http://www.w3.org/2000/svg" xmlns:xlink="http://www.w3.org/1999/xlink" viewBox="0 0 1122.18 260.29"><defs><style>.cls-1{fill:url(#linear-gradient);}.cls-2{font-size:49px;fill:#fff;font-family:Aniron-Bold, Aniron;font-weight:700;}.cls-3{letter-spacing:-0.04em;}.cls-4{letter-spacing:-0.05em;}.cls-5{letter-spacing:0em;}.cls-6{letter-spacing:-0.05em;}.cls-7{letter-spacing:-0.11em;}.cls-8{letter-spacing:-0.05em;}</style><linearGradient id="linear-gradient" x1="54.92" y1="222.23" x2="369.56" y2="222.23" gradientUnits="userSpaceOnUse"><stop offset="0" stop-color="#f39226"/><stop offset="0.24" stop-color="#eb5d2d"/><stop offset="0.44" stop-color="#8e2e88"/><stop offset="0.73" stop-color="#2177bb"/><stop offset="1" stop-color="#03a59b"/></linearGradient></defs><path class="cls-1" d="M365.83,229l-95.69-.22a1.25,1.25,0,0,1-1.21-1l-7.39-31.87a4.1,4.1,0,0,0-8.07.54l-8.39,90.63L227.86,114.78a4.78,4.78,0,0,0-9.52.18L208.17,275.49,190.58,112.73a4.23,4.23,0,0,0-8.43.11l-13.91,168L155.33,125.05a4,4,0,0,0-4.07-3.74h0a4,4,0,0,0-4,3.82l-8.11,127.45-9.74-93.42a4.59,4.59,0,0,0-9.13.09l-7.74,91.33-9.15-69.16a5.08,5.08,0,0,0-10-.43l-9.88,44.9a3.78,3.78,0,0,1-3.7,3l-15.8,0c-.12-2.22-.19-4.45-.19-6.69a121.33,121.33,0,0,1,239-29.51h9.09a130.13,130.13,0,1,0-6.79,80H295.4A121.33,121.33,0,0,1,64.58,236.41l15.21,0a11.23,11.23,0,0,0,11-8.87L97.69,196l10.85,82a4.6,4.6,0,0,0,9.14-.22l7.4-87.3,10.19,97.76a4.53,4.53,0,0,0,4.52,4.08h.1a4.5,4.5,0,0,0,4.44-4.25l7.38-116,12.45,150.16a4.07,4.07,0,0,0,4.08,3.76h0a4.08,4.08,0,0,0,4.09-3.76L186.8,147.4l17.65,163.3a4.49,4.49,0,0,0,4.49,4h.11a4.49,4.49,0,0,0,4.41-4.24l10.25-162,16.91,169.19a4.57,4.57,0,0,0,4.57,4.13h0a4.56,4.56,0,0,0,4.55-4.17L259,218l2.65,11.43a8.7,8.7,0,0,0,8.48,6.76l95.69.23a3.75,3.75,0,0,0,0-7.49Z" transform="translate(-54.92 -92.08)"/><text class="cls-2" transform="translate(331.18 157.53)"><tspan class="cls-3">M</tspan><tspan class="cls-4" x="98.73" y="0">i</tspan><tspan class="cls-5" x="118.14" y="0">dd</tspan><tspan class="cls-4" x="196.93" y="0">l</tspan><tspan x="230.45" y="0">e </tspan><tspan class="cls-6" x="290.27" y="0">E</tspan><tspan x="334.52" y="0">arth </tspan><tspan class="cls-7" x="515.38" y="0">F</tspan><tspan x="554.92" y="0">esti</tspan><tspan class="cls-8" x="679.43" y="0">v</tspan><tspan x="717.7" y="0">al</tspan></text></svg>